# xmcd
#
# Track frame offsets: 
#        150
#        10875
#        22482
#        32510
#        42857
#        55717
#        70202
#        81210
#        92692
#        110107
#        121610
#        137502
#        149447
#        161192
#        173340
#        186225
#        200455
#        210962
#        223725
#        233055
#
# Disc length: 3230 seconds
#
# Revision: 0
# Processed by: cddbd v1.4PL0 Copyright (c) Steve Scherf et al.
# Submitted via: ExactAudioCopy v0.90b4
#
DISCID=150c9c14
DTITLE=Charley Pride - Through The Years
DYEAR=1900
DGENRE=Country
TTITLE0=I'm Just Me
TTITLE1=On The Southbound
TTITLE2=Is Anyone Going To San Antone
TTITLE3=Just Between You And Me
TTITLE4=Crystal Chandeliers
TTITLE5=Kaw-Liga
TTITLE6=I Know One
TTITLE7=Hello Darlin'
TTITLE8=Did You Think To Pray
TTITLE9=The World Stood Still
TTITLE10=Me And Bobby McGee
TTITLE11=Through The Years
TTITLE12=I Think I'll Take A Walk
TTITLE13=A Poor Boy Like Me
TTITLE14=Nobody Home To Go Home To
TTITLE15=I Can't Believe That You've Stopped Loving Me
TTITLE16=Does My Ring Hurt Your Finger
TTITLE17=I'd Rather Love You
TTITLE18=That's My Way
TTITLE19=Kiss An Angel Good Mornin'
EXTD=
EXTT0=
EXTT1=
EXTT2=
EXTT3=
EXTT4=
EXTT5=
EXTT6=
EXTT7=
EXTT8=
EXTT9=
EXTT10=
EXTT11=
EXTT12=
EXTT13=
EXTT14=
EXTT15=
EXTT16=
EXTT17=
EXTT18=
EXTT19=
PLAYORDER=
